<svg xmlns="http://www.w3.org/2000/svg" width="64" height="62" viewBox="0 0 64 62">
  <defs>
    <style>
      .cls-1 {
        fill: #fff;
      }
    </style>
  </defs>
  <path id="github-svgrepo-com" class="cls-1" d="M32,0A31.591,31.591,0,0,0,0,32C0,53,19,62,22,62c2,0,2-1,2-2V55c-7,2-10-2-11-5,0,0,0-1-2-3-1-1-5-3-1-3,3,0,5,4,5,4,3,4,7,3,9,2,0-2,2-4,2-4-8-1-14-4-14-15q0-6,3-9a11.683,11.683,0,0,1,0-9,13.871,13.871,0,0,1,9,4c3-2,13-2,16,0a13.871,13.871,0,0,1,9-4c2,7,0,9,0,9q3,3,3,9c0,11-7,14-14,15a8.454,8.454,0,0,1,2,6v8c0,1,0,2,2,2,3,0,22-9,22-30A31.591,31.591,0,0,0,32,0Z"/>
</svg>
