<svg xmlns="http://www.w3.org/2000/svg" width="51.615" height="50" viewBox="0 0 51.615 50">
  <defs>
    <style>
      .cls-1 {
        fill: #fff;
      }
    </style>
  </defs>
  <path id="github-svgrepo-com" class="cls-1" d="M25.8,0A25.476,25.476,0,0,0,0,25.8C0,42.74,15.321,50,17.741,50c1.613,0,1.613-.806,1.613-1.613V44.352c-5.645,1.613-8.064-1.613-8.871-4.032,0,0,0-.806-1.613-2.419-.806-.806-4.032-2.419-.806-2.419,2.419,0,4.032,3.226,4.032,3.226a5.5,5.5,0,0,0,7.258,1.613,5.631,5.631,0,0,1,1.613-3.226c-6.451-.806-11.29-3.226-11.29-12.1q0-4.838,2.419-7.258a9.421,9.421,0,0,1,0-7.258,11.186,11.186,0,0,1,7.258,3.226c2.419-1.613,10.483-1.613,12.9,0a11.186,11.186,0,0,1,7.258-3.226c1.613,5.645,0,7.258,0,7.258Q41.933,20.16,41.933,25c0,8.871-5.645,11.29-11.29,12.1a6.817,6.817,0,0,1,1.613,4.838v6.451c0,.806,0,1.613,1.613,1.613C36.288,50,51.61,42.74,51.61,25.8A25.476,25.476,0,0,0,25.8,0Z" transform="translate(0.003 0.003)"/>
</svg>
