<svg xmlns="http://www.w3.org/2000/svg" width="56.99" height="56.99" viewBox="0 0 56.99 56.99">
  <defs>
    <style>
      .cls-1 {
        fill: #fff;
      }
    </style>
  </defs>
  <g id="linkedin-svgrepo-com_4_" data-name="linkedin-svgrepo-com (4)" transform="translate(0.034 0.034)">
    <path id="Path_3" data-name="Path 3" class="cls-1" d="M24.211,11.952a5.855,5.855,0,0,0-2.908.715.827.827,0,0,0-.95-.627H14.837a.7.7,0,0,0-.819.924V33.3a.732.732,0,0,0,.819.924h5.517a.936.936,0,0,0,.987-.952l0-12.29a1.531,1.531,0,0,1,.349-1,2.009,2.009,0,0,1,1.518-.486,1.656,1.656,0,0,1,1.9,1.562V33.273a.72.72,0,0,0,.793.952h5.814a.719.719,0,0,0,.791-.952V20.65C32.7,14.231,28.127,11.952,24.211,11.952Zm6.513,20.424H26.886V21.061a3.349,3.349,0,0,0-3.679-3.537,3.86,3.86,0,0,0-2.969,1.12,2.634,2.634,0,0,0-.677,2.64V32.376H15.824V13.926h3.542v.621a.984.984,0,0,0,.551.886,1,1,0,0,0,1.039-.1l.259-.2a4.363,4.363,0,0,1,3-1.2c1.527,0,6.513.486,6.513,6.724V32.376Z" transform="translate(10.435 8.799)"/>
    <path id="Path_4" data-name="Path 4" class="cls-1" d="M12.726,6.966a3.76,3.76,0,1,0,3.76,3.76A3.763,3.763,0,0,0,12.726,6.966Zm0,5.546a1.786,1.786,0,1,1,1.786-1.786A1.789,1.789,0,0,1,12.726,12.512Z" transform="translate(6.901 5.367)"/>
    <path id="Path_5" data-name="Path 5" class="cls-1" d="M15.349,11.951H9.862a.823.823,0,0,0-.85,1.015V33.3a.763.763,0,0,0,.85.924h5.487a.936.936,0,0,0,.987-.952V12.938A.987.987,0,0,0,15.349,11.951Zm-.791,20.426H10.849V13.927h3.708Z" transform="translate(6.919 8.798)"/>
    <path id="Path_6" data-name="Path 6" class="cls-1" d="M28.461-.034A28.495,28.495,0,1,0,56.956,28.461,28.525,28.525,0,0,0,28.461-.034Zm0,55.092a26.6,26.6,0,1,1,26.6-26.6A26.628,26.628,0,0,1,28.461,55.058Z" transform="translate(0 0)"/>
  </g>
</svg>
