<svg id="linkedin" xmlns="http://www.w3.org/2000/svg" width="50" height="50" viewBox="0 0 50 50">
  <defs>
    <style>
      .cls-1 {
        fill: #fff;
      }

      .cls-2 {
        fill: #080945;
      }
    </style>
  </defs>
  <path id="Path_4" data-name="Path 4" class="cls-1" d="M25,0A25,25,0,1,1,0,25,25,25,0,0,1,25,0Z"/>
  <path id="Path_5" data-name="Path 5" class="cls-2" d="M81.964,99.924h5.8V80.576h-5.8Zm22.615-20.018a8.713,8.713,0,0,0-7.126,3.3V80.512H91.627V99.924h5.826v-10.5a4.608,4.608,0,0,1,4.578-4.383c2.546,0,3.174,2.164,3.174,4.328v10.55h5.8V88.94c0-7.628-3.605-9.034-6.426-9.034Zm-19.74-1.264a2.906,2.906,0,1,0-2.906-2.906,2.906,2.906,0,0,0,2.906,2.906Z" transform="translate(-70.851 -62.659)"/>
</svg>
