<svg xmlns="http://www.w3.org/2000/svg" width="180" height="180" viewBox="0 0 180 180"><defs><style>.a{fill:#007acc;}.b{fill:#fff;}</style></defs><path class="a" d="M0,90V0H180V180H0"/><path class="b" d="M39.465,90.315V97.65h23.4v66.6H79.47V97.65h23.4v-7.2c0-4.05,0-7.335-.18-7.425,0-.135-14.265-.18-31.59-.18l-31.5.135v7.38l-.135-.045ZM144.63,82.8a21.789,21.789,0,0,1,11.25,6.435c1.665,1.8,4.14,4.95,4.32,5.76,0,.27-7.785,5.535-12.51,8.46-.18.135-.9-.63-1.62-1.8-2.34-3.33-4.725-4.77-8.46-5.04-5.4-.36-9,2.475-9,7.2a7.111,7.111,0,0,0,.81,3.42c1.215,2.475,3.465,3.96,10.44,7.02,12.87,5.535,18.45,9.18,21.825,14.4,3.825,5.85,4.68,15.03,2.115,21.915-2.88,7.515-9.9,12.6-19.935,14.265a56.134,56.134,0,0,1-13.725-.135c-7.2-1.35-14.085-4.95-18.315-9.585-1.665-1.8-4.86-6.615-4.68-6.93l1.71-1.08,6.75-3.915,5.085-2.97,1.17,1.575a24.488,24.488,0,0,0,6.75,6.57c5.85,3.015,13.68,2.61,17.55-.9a6.744,6.744,0,0,0,2.385-5.4,6.944,6.944,0,0,0-1.35-4.59c-1.44-1.98-4.32-3.6-12.42-7.2-9.315-3.96-13.275-6.48-16.965-10.35a25.563,25.563,0,0,1-4.95-9c-.675-2.61-.9-9-.27-11.565,1.935-9,8.73-15.3,18.45-17.1a43.616,43.616,0,0,1,13.68.45l-.09.09Z"/></svg>