<svg id="whatsapp-svgrepo-com" xmlns="http://www.w3.org/2000/svg" width="57" height="57.466" viewBox="0 0 57 57.466">
  <defs>
    <style>
      .cls-1 {
        fill: #fff;
      }
    </style>
  </defs>
  <path id="Path_2" data-name="Path 2" class="cls-1" d="M48.768,8.387A27.96,27.96,0,0,0,28.733,0,28.37,28.37,0,0,0,.311,28.578,29.989,29.989,0,0,0,4.038,42.711L0,57.466l15.065-3.883A27.732,27.732,0,0,0,28.578,57h0A28.569,28.569,0,0,0,57,28.422,28.186,28.186,0,0,0,48.768,8.387Zm-20.035,43.8h0a23.075,23.075,0,0,1-11.959-3.261l-.932-.466-9.008,2.33,2.33-8.853L8.542,41A23.575,23.575,0,1,1,41,48.613,22.643,22.643,0,0,1,28.733,52.185ZM42.4,34.946l-1.708-.777s-2.485-1.087-4.038-1.864c-.155,0-.311-.155-.466-.155a2.243,2.243,0,0,0-1.087.311h0s-.155.155-2.33,2.64a.854.854,0,0,1-.777.466h-.155a1.179,1.179,0,0,1-.621-.311l-.777-.311h0a15.1,15.1,0,0,1-4.5-2.951c-.311-.311-.777-.621-1.087-.932A17.345,17.345,0,0,1,21.9,27.335l-.155-.311c-.155-.155-.155-.311-.311-.621a1.164,1.164,0,0,1,.155-.777s.621-.777,1.087-1.242c.311-.311.466-.777.777-1.087a1.913,1.913,0,0,0,.311-1.553,60.43,60.43,0,0,0-2.485-5.9,1.8,1.8,0,0,0-1.087-.777H18.482c-.311,0-.621.155-.932.155l-.155.155c-.311.155-.621.466-.932.621-.311.311-.466.621-.777.932a7.92,7.92,0,0,0-1.708,4.815h0a9.213,9.213,0,0,0,.777,3.572l.155.466A25.875,25.875,0,0,0,20.657,33.7l.621.621a9.373,9.373,0,0,1,1.243,1.243,27.753,27.753,0,0,0,11.183,5.9c.466.155,1.087.155,1.553.311h1.553a5.76,5.76,0,0,0,2.33-.621c.466-.311.776-.311,1.087-.621l.311-.311c.311-.311.621-.466.932-.776a4.122,4.122,0,0,0,.777-.932,8.909,8.909,0,0,0,.621-2.174V35.256A1.921,1.921,0,0,0,42.4,34.946Z"/>
</svg>
