<svg xmlns="http://www.w3.org/2000/svg" width="62" height="62" viewBox="0 0 62 62">
  <defs>
    <style>
      .cls-1, .cls-2 {
        fill: #fff;
      }

      .cls-1 {
        opacity: 0;
      }
    </style>
  </defs>
  <g id="Layer_2" data-name="Layer 2" transform="translate(-0.274 -0.274)">
    <g id="behance" transform="translate(0.274 0.274)">
      <rect id="Rectangle_3" data-name="Rectangle 3" class="cls-1" width="62" height="62"/>
      <path id="Path_6" data-name="Path 6" class="cls-2" d="M16.624,11.194a2.856,2.856,0,0,0-2.856,3.113h5.884a2.856,2.856,0,0,0-3.028-3.113Z" transform="translate(21.489 17.563)"/>
      <path id="Path_7" data-name="Path 7" class="cls-2" d="M11.773,12.3H8.26v5.541h2.856c2.856,0,4.113-.943,4.113-2.856S13.915,12.3,11.773,12.3Z" transform="translate(12.765 19.208)"/>
      <path id="Path_8" data-name="Path 8" class="cls-2" d="M14.258,12.1c0-1.514-1-2.428-2.713-2.428H8.26v4.97h2.428c2.542,0,3.57-.914,3.57-2.542Z" transform="translate(12.801 15.072)"/>
      <path id="Path_9" data-name="Path 9" class="cls-2" d="M27.562,2A25.562,25.562,0,1,0,53.124,27.562,25.562,25.562,0,0,0,27.562,2ZM21.683,35.742h-6.9V19.126h6.9c2.991,0,4.959,1.559,4.959,4.09a3.579,3.579,0,0,1-2.863,3.655,3.885,3.885,0,0,1,3.783,4.192C27.562,34.029,25.006,35.742,21.683,35.742ZM30.757,20.4h7.669v1.278H30.757Zm9.586,9.841H31.907V30.6a2.735,2.735,0,0,0,2.786,3.042,2.3,2.3,0,0,0,2.556-1.61h3.093A5.112,5.112,0,0,1,34.8,36a5.5,5.5,0,0,1-6.033-5.879V28.993a5.394,5.394,0,0,1,5.828-5.751,5.419,5.419,0,0,1,5.751,5.8Z" transform="translate(3.438 3.438)"/>
    </g>
  </g>
</svg>
