<svg id="linkedin-svgrepo-com" xmlns="http://www.w3.org/2000/svg" width="62" height="62" viewBox="0 0 62 62">
  <defs>
    <style>
      .cls-1 {
        fill: #fff;
      }

      .cls-2 {
        fill: #080945;
      }
    </style>
  </defs>
  <path id="Path_4" data-name="Path 4" class="cls-1" d="M31,0A31,31,0,1,1,0,31,31,31,0,0,1,31,0Z"/>
  <path id="Path_5" data-name="Path 5" class="cls-2" d="M81.964,99.924h5.8V80.576h-5.8Zm22.615-20.018a8.713,8.713,0,0,0-7.126,3.3V80.512H91.627V99.924h5.826v-10.5a4.608,4.608,0,0,1,4.578-4.383c2.546,0,3.174,2.164,3.174,4.328v10.55h5.8V88.94C111.009,81.312,107.4,79.906,104.579,79.906ZM84.839,78.642a2.906,2.906,0,1,0-2.906-2.906A2.907,2.907,0,0,0,84.839,78.642Z" transform="translate(-64.496 -57.33)"/>
</svg>
